<svg height="361.999707" viewBox="0 0 40.2734694 361.999707" width="40.273469" xmlns="http://www.w3.org/2000/svg"><g fill="#d3a41a" fill-rule="evenodd" transform="matrix(-1 0 0 1 40.27347 0)"><path d="m20.1371527 3.56737539c-9.1359989 0-16.56986617 7.43321641-16.56986617 16.56944291s7.43386727 16.5694429 16.56986617 16.5694429 16.5690302-7.4332164 16.5690302-16.5694429-7.4330313-16.56944291-16.5690302-16.56944291m0 36.70626121c-11.10398398 0-20.1371527-9.0342298-20.1371527-20.1368183 0-11.10342456 9.03316872-20.1368183 20.1371527-20.1368183 11.103148 0 20.1363167 9.03339374 20.1363167 20.1368183 0 11.1025885-9.0331687 20.1368183-20.1363167 20.1368183" transform="translate(0 321.72607)"/><path d="m23.9942416 325.340356c-1.0058183 0-1.822085-.804101-1.822085-1.798692v-4.414971h-3.5553711v4.414971c0 .994591-.8154129 1.798692-1.8212311 1.798692-1.0058183 0-1.822085-.804101-1.822085-1.798692v-6.21282c0-.994591.8162667-1.798692 1.822085-1.798692h7.1986872c1.0058182 0 1.8220849.804101 1.8220849 1.798692v6.21282c0 .994591-.8162667 1.798692-1.8220849 1.798692"/><path d="m18.5877551 317.355493v-315.56784628c0-.98836289.8095729-1.78764672 1.8071429-1.78764672.9975699 0 1.8071428.79928383 1.8071428 1.78764672v315.56784628c0 .989201-.8095729 1.788945-1.8071428 1.788945-.99757 0-1.8071429-.799744-1.8071429-1.788945z"/><path d="m27.9272901 345.993417c-.4742834 0-.9284559-.192499-1.2636386-.534721l-3.7573975-3.836301-3.7573976 3.836301c-.6988558.712676-1.8300972.712676-2.5281151 0l-3.7573975-3.836301-3.75739758 3.836301c-.69801787.712676-1.82925932.712676-2.52811515 0l-5.02103614-5.126476c-.69885583-.713532-.69885583-1.868529 0-2.581205.69801788-.713532 1.82925933-.713532 2.52811516 0l3.75739753 3.835446 3.75739758-3.835446c.6980178-.713532 1.8292593-.713532 2.5281151 0l3.7565596 3.835446 3.7573975-3.835446c.6988559-.713532 1.8300973-.713532 2.5281152 0l3.7573975 3.835446 3.7565596-3.835446c.6980179-.713532 1.8292593-.713532 2.5281152 0l5.0210361 5.126477c.6988558.712676.6988558 1.868528 0 2.581204-.6980179.712676-1.8292593.712676-2.5281152 0l-3.7573975-3.836301-3.7565596 3.836301c-.3351826.342222-.7893551.534721-1.2636386.534721"/></g></svg>