<svg height="222" viewBox="0 0 51 222" width="51" xmlns="http://www.w3.org/2000/svg"><g fill="#d3a41a" fill-rule="evenodd"><path d="m3.40625201 198.016552h14.23411009c.6674423 3.639907 3.8451907 6.408217 7.6599684 6.408217s6.9933481-2.76831 7.6607904-6.408217h14.2332881c-.7340221 11.49996-10.2590477 20.637695-21.8940785 20.637695s-21.16005641-9.137735-21.89407849-20.637695zm21.89407849 3.568924c-2.7388147 0-4.9671841-2.238419-4.9671841-4.988571 0-2.750977 2.2283694-4.988571 4.9671841-4.988571 2.7396367 0 4.9680061 2.237594 4.9680061 4.988571 0 2.750152-2.2283694 4.988571-4.9680061 4.988571zm21.8940785-6.409042h-14.2332881c-.6674423-3.639082-3.8460127-6.408218-7.6607904-6.408218s-6.9925261 2.769136-7.6599684 6.408218h-14.23411009c.73402208-11.499135 10.25904769-20.636045 21.89407849-20.636045s21.1600564 9.13691 21.8940785 20.636045zm-24.9690803-28.520034h6.1508256v5.256818c-1.0102051-.126283-2.0319178-.212122-3.0758238-.212122-1.043084 0-2.0647967.085839-3.0750018.212122zm8.9784134-1.419647c0-.784107-.6329193-1.419646-1.4137939-1.419646h-3.0758238v-162.39759106c0-.78493235-.6329193-1.41918611-1.4137939-1.41918611-.7808745 0-1.4137939.63425376-1.4137939 1.41918611v162.39759106h-3.0750018c-.7808746 0-1.4137939.635539-1.4137939 1.419646v7.207182c-10.82620922 2.669265-18.89141039 12.470602-18.89141039 24.15297 0 13.728475 11.12211959 24.896635 24.79399999 24.896635 13.6718805 0 24.794-11.16816 24.794-24.896635 0-11.682368-8.0652012-21.48288-18.8905884-24.15297z"/><path d="m28.0168229 171.668946v-4.453546h-5.4311669v4.453546c.9956726-.111318 1.8674026-.164091 2.7151703-.164091.8469414 0 1.7194977.052773 2.7159966.164091zm-6.1830857.847666v-6.052403h6.9350044v6.052403l-.4222313-.052773c-2.2888076-.284479-3.8050393-.284479-6.0905418 0zm25.0711193 22.441716c-.9246122-11.173032-10.3376433-19.866559-21.6040302-19.866559-11.2672132 0-20.68024431 8.693527-21.60485648 19.866559h13.59650868c.8353735-3.727917 4.1545577-6.402849 8.0083478-6.402849s7.1729743 2.674932 8.0083477 6.402849zm.8056272.750366h-15.0218492l-.0570136-.307568c-.6519383-3.531667-3.7348052-6.094456-7.3307946-6.094456s-6.6788563 2.562789-7.3307946 6.094456l-.0570136.307568h-15.0226755l.02561481-.398271c.75605017-11.758483 10.58800749-20.96902 22.38486889-20.96902s21.6279924 9.210537 22.3840426 20.96902zm-27.0269343 1.043091c0 2.54135 2.0714949 4.607742 4.6172769 4.607742 2.5466083 0 4.6181031-2.066392 4.6181031-4.607742 0-2.541349-2.0714948-4.609391-4.6181031-4.609391-2.545782 0-4.6172769 2.068042-4.6172769 4.609391zm-.7519187 0c0-2.955288 2.4077925-5.359757 5.3691956-5.359757 2.961403 0 5.3700219 2.404469 5.3700219 5.359757 0 2.954463-2.4086189 5.358108-5.3700219 5.358108-2.9614031 0-5.3691956-2.403645-5.3691956-5.358108zm-16.23566088 1.793457c.92461217 11.173033 10.33764328 19.867383 21.60485648 19.867383 11.2663869 0 20.679418-8.69435 21.6040302-19.867383h-13.5956825c-.8353734 3.727918-4.1545576 6.402849-8.0083477 6.402849s-7.1729743-2.674931-8.0083478-6.402849zm-.78001241-.352095-.02561481-.399095h15.0226755l.0570136.308392c.6519383 3.530843 3.7348052 6.094456 7.3307946 6.094456s6.6788563-2.563613 7.3307946-6.094456l.0570136-.308392h15.0218492l-.0256148.399095c-.7560502 11.759308-10.5880075 20.970669-22.3840426 20.970669-11.7968614 0-21.62881872-9.211361-22.38486889-20.970669zm17.87170389-33.814295c-.5759202 0-1.0444234.46836-1.0444234 1.043091v7.495414l-.2867207.070089c-11.0127176 2.697195-18.70377217 12.469269-18.70377217 23.764339 0 13.507413 11.01271757 24.497389 24.54808127 24.497389 13.5353636 0 24.547255-10.989976 24.547255-24.497389 0-11.293421-7.6902283-21.066319-18.7021196-23.764339l-.2867207-.070089v-7.495414c0-.574731-.4685032-1.043091-1.0452497-1.043091h-3.4687416v-162.58585498c0-.57473089-.4685032-1.04180643-1.0444234-1.04180643-.5767465 0-1.0452497.46707554-1.0452497 1.04180643v162.58585498zm-20.7876613 32.372933c0-11.542443 7.79351383-21.54375 18.9904928-24.423177v-6.906665c0-.988669.8064535-1.793457 1.7971685-1.793457h2.7151703v-161.83548898c0-.98866906.8064535-1.79299702 1.7979947-1.79299702s1.7971684.80432796 1.7971684 1.79299702v161.83548898h2.7159966c.9907149 0 1.7979947.804788 1.7979947 1.793457v6.906665c11.1961527 2.880251 18.9888403 12.881558 18.9888403 24.423177 0 13.921351-11.3498416 25.247755-25.3 25.247755-13.9509847 0-25.3008263-11.326404-25.3008263-25.247755z"/></g></svg>