<svg height="302" viewBox="0 0 345 302" width="345" xmlns="http://www.w3.org/2000/svg" xmlns:xlink="http://www.w3.org/1999/xlink"><mask id="a" fill="#fff"><path d="m0 0h345v302h-345z" fill="#fff" fill-rule="evenodd"/></mask><path d="m172.403285 81.2494488c35.912537 0 65.605191 27.0641352 69.772713 61.8590872h-25.811508c-3.737958-20.814703-21.97809-36.665513-43.865746-36.665513-21.885144 0-40.125276 15.85081-43.863234 36.665513h-26.004937c4.167522-34.794952 33.860176-61.8590872 69.772712-61.8590872m-28.353721 69.7505972c0-15.680075 12.763822-28.437555 28.44918-28.437555 15.68787 0 28.451692 12.75748 28.451692 28.437555 0 15.680074-12.763822 28.435043-28.451692 28.435043-15.685358 0-28.44918-12.754969-28.44918-28.435043m28.353721 70.762457c-36.261714 0-66.195526-27.591408-69.900828-62.870948h26.133053c3.737958 20.814703 21.97809 36.665513 43.863234 36.665513s40.127788-15.85081 43.865746-36.665513h25.939623c-3.705301 35.27954-33.639114 62.870948-69.900828 62.870948m-166.77625077-62.870948h32.39312787l-7.8728238 7.868912c-2.2005723 2.196968-2.2005723 5.759822 0 7.95679l3.2053999 3.203807c2.1980602 2.199479 5.7601738 2.199479 7.9582341 0l18.7802267-18.770895c.0803862-.080346.1381638-.173246.2135259-.258614h26.0174971c.8541034 10.023196 3.4239498 19.556781 7.4231634 28.317035l-24.299242 13.960162c-2.9064636-.881298-6.1520566-.617662-8.9932065 1.014372-5.4612376 3.138526-7.3402652 10.106053-4.2026912 15.562066 3.1400861 5.456013 10.1110772 7.339129 15.5698028 4.200603 2.7607637-1.586839 4.6021101-4.152897 5.3456825-7.00519l24.414797-14.027954c5.654667 8.074799 12.650779 15.135226 20.669303 20.86743l-12.917058 22.233316c-.110531.020087-.221062.022598-.331593.052727l-25.670832 6.806835c-3.0044344.79593-4.7955395 3.876707-3.9967016 6.879649l1.1605758 4.378871c.7963259 3.005452 3.8811464 4.793156 6.8855808 3.994715l10.7617029-2.852292-16.2656458 27.998161c-1.5599947 2.686578-.6481138 6.128913 2.042312 7.690643l3.9188274 2.274804c2.6879137 1.56173 6.1319601.647792 7.6944669-2.041297l16.2656456-27.998161 2.856222 10.758866c.796326 3.002942 3.878635 4.793157 6.885581 3.997227l4.378536-1.165021c3.006947-.79593 4.79554-3.874196 3.999214-6.877138l-6.810219-25.660586c-.030145-.110476-.082898-.205888-.118067-.313853l12.886913-22.178078c8.865091 4.150386 18.544092 6.836964 28.72802 7.753414v27.704394c-2.213133 2.07896-3.602307 5.024152-3.602307 8.298262 0 6.294628 5.102012 11.399126 11.40228 11.399126 6.297757 0 11.402281-5.104498 11.402281-11.399126 0-3.181209-1.306276-6.056099-3.41139-8.122504v-27.895217c10.173879-.936536 19.84032-3.64069 28.692851-7.806142l12.924594 22.245871c-.035169.107965-.087922.203377-.118067.313853l-6.810219 25.660586c-.796326 3.002942.992267 6.081208 3.996702 6.877138l4.38356 1.165021c3.004434.79593 6.084231-.994285 6.883069-3.997227l2.856222-10.756355 16.265646 27.99565c1.559994 2.689089 5.006553 3.603027 7.694467 2.041297l3.918827-2.274804c2.690426-1.56173 3.602307-5.004065 2.042312-7.690643l-16.268158-27.998161 10.766727 2.852292c3.001922.798441 6.084231-.989263 6.880557-3.992204l1.163088-4.381382c.796325-3.002942-.992268-6.083719-3.99419-6.879649l-25.673344-6.806835c-.110531-.030129-.221062-.03264-.331593-.052727l-12.972323-22.331238c8.013499-5.75229 15.002075-12.832805 20.644182-20.92769l24.243976 13.930033c.700867 2.955235 2.56231 5.629259 5.40346 7.261293 5.458726 3.138526 12.429717 1.25541 15.569803-4.200603 3.137574-5.456013 1.258546-12.42354-4.202691-15.562066-2.758252-1.584328-5.903362-1.885627-8.747024-1.092207l-24.462526-14.058085c3.948972-8.712547 6.493698-18.185874 7.340265-28.141277h26.210926c.075362.085368.130628.178268.211014.258614l18.780227 18.770895c2.19806 2.199479 5.762686 2.199479 7.960746 0l3.2054-3.203807c2.19806-2.196968 2.19806-5.757312 0-7.95679l-7.875336-7.868912h32.393128c3.109941 0 5.629546-2.520864 5.629546-5.626749v-4.529521c0-3.108396-2.519605-5.626749-5.629546-5.626749h-32.393128l7.875336-7.871422c2.19806-2.196968 2.19806-5.757312 0-7.956791l-3.2054-3.203807c-2.19806-2.196968-5.762686-2.196968-7.960746 0l-18.780227 18.773406c-.080386.077835-.135652.173246-.211014.258614h-26.2888c-.957099-9.892633-3.602307-19.295656-7.626641-27.932879l24.826776-14.266483c2.843662.790909 5.988772.492121 8.747024-1.0947176 5.461237-3.1360149 7.340265-10.1035421 4.202691-15.5595553-3.140086-5.4585241-10.111077-7.3391287-15.569803-4.2031137-2.84115 1.6345442-4.702593 4.3085681-5.40346 7.2612932l-24.753926 14.2263094c-5.652155-7.9316821-12.60305-14.8715903-20.551236-20.5083826l13.389327-23.0443116c.110531-.0225974.221062-.0251082.331593-.0527273l25.670832-6.8068346c3.004434-.7959302 4.793027-3.8767071 3.996702-6.8796485l-1.160576-4.381382c-.798838-3.0029415-3.881147-4.7906457-6.883069-3.9947156l-10.766727 2.854803 16.268158-28.0006715c1.559995-2.68657804.648114-6.12640228-2.042312-7.69064352l-3.92134-2.27229266c-2.685401-1.56173043-6.13196-.64779172-7.691954 2.03878634l-16.265646 27.99816064-2.856222-10.7563555c-.798838-3.0054522-3.878635-4.7931565-6.883069-3.9947156l-4.38356 1.1599992c-3.004435.7959301-4.793028 3.876707-3.996702 6.8796484l6.810219 25.6605867c.030145.1079653.082898.2058873.118067.3113418l-13.389327 23.0493332c-8.726927-4.0424211-18.230084-6.676272-28.228118-7.5977431v-28.904567c2.105114-2.0689162 3.41139-4.9412949 3.41139-8.1250155 0-6.2946273-5.104524-11.3966148-11.402281-11.3966148-6.297756 0-11.40228 5.1019875-11.40228 11.3966148 0 3.2766209 1.389174 6.2218135 3.602307 8.300773v28.7137445c-10.008083.9013846-19.5238 3.5151489-28.265799 7.545016l-13.349134-22.9815411c.035169-.1054545.087922-.2033765.118067-.3113418l6.810219-25.6605867c.796326-3.0029414-.992267-6.0837183-3.999214-6.8796484l-4.378536-1.1599992c-3.006946-.7984409-6.089255.9892634-6.885581 3.9947156l-2.856222 10.7563555-16.2656456-27.99816064c-1.5625068-2.68657806-5.0065532-3.60051677-7.6919548-2.03878634l-3.9213395 2.27229266c-2.6904258 1.56424124-3.6023067 5.00406548-2.042312 7.69064352l16.2656458 28.0006715-10.7617029-2.854803c-3.0044344-.7959301-6.0892549.9917741-6.8855808 3.9947156l-1.1605758 4.381382c-.7988379 3.0029414.9922672 6.0812075 3.9967016 6.8796485l25.670832 6.8068346c.110531.0276191.221062.0301299.331593.0527273l13.331549 22.9489004c-7.950698 5.6141949-14.909129 12.5340165-20.573844 20.4456118l-24.924747-14.3217203c-.7435724-2.854803-2.5849188-5.4208617-5.3456825-7.0077003-5.4587256-3.136015-12.4297167-1.2554104-15.5672907 4.2031137-3.1400861 5.4560132-1.2610585 12.4235404 4.2001791 15.5595553 2.8411499 1.6320336 6.0867429 1.8956696 8.9932065 1.0143716l24.663492 14.171072c-4.0720636 8.684928-6.7449048 18.148211-7.7095393 28.108636h-26.0953712c-.0753621-.085368-.1331397-.180779-.2135259-.258614l-18.7802267-18.773406c-2.1980603-2.196968-5.7601739-2.196968-7.9582341 0l-3.2053999 3.203807c-2.2005723 2.199479-2.2005723 5.759823 0 7.956791l7.8728238 7.871422h-32.39312787c-3.10994124 0-5.62703423 2.518353-5.62703423 5.626749v4.529521c0 3.105885 2.51709299 5.626749 5.62703423 5.626749" fill="#d3a41a" fill-rule="evenodd" mask="url(#a)"/></svg>