<svg height="60" viewBox="0 0 60 60" width="60" xmlns="http://www.w3.org/2000/svg"><g fill="#d3a41a" fill-rule="evenodd"><path d="m43.5547411 47c-.8815323 0-1.7630646-.3367273-2.4365098-1.0101819l-27.1080634-27.1084405c-1.3468905-1.3469092-1.3468905-3.5261781 0-4.8711957 1.3449988-1.3469092 3.5242374-1.3469092 4.8711279 0l27.1099551 27.1084405c1.3449988 1.3469092 1.3449988 3.5261781 0 4.8711957-.6734453.6734546-1.5549775 1.0101819-2.4365098 1.0101819"/><path d="m16.4452589 47c-.8815323 0-1.7630645-.3367273-2.4365098-1.0101819-1.3449988-1.3450176-1.3449988-3.5242865 0-4.8711957l27.1099551-27.1084405c1.3468905-1.3469092 3.5261291-1.3469092 4.8711279 0 1.3468905 1.3450176 1.3468905 3.5242865 0 4.8711957l-27.1080634 27.1084405c-.6734452.6734546-1.5549775 1.0101819-2.4365098 1.0101819"/><path d="m29.5 60c-1.933553 0-3.5-1.5471256-3.5-3.4568292v-53.0844433c0-1.91160186 1.566447-3.4587275 3.5-3.4587275s3.5 1.54712564 3.5 3.4587275v53.0844433c0 1.9097036-1.566447 3.4568292-3.5 3.4568292"/><path d="m56.5431708 34h-53.08634162c-1.90970354 0-3.45682918-1.566447-3.45682918-3.5 0-1.935475 1.54712564-3.5 3.45682918-3.5h53.08634162c1.9097036 0 3.4568292 1.564525 3.4568292 3.5 0 1.933553-1.5471256 3.5-3.4568292 3.5"/></g></svg>